# xmcd
#
# Track frame offsets:
#	150
#	24457
#	49542
#	72665
#	102820
#	121242
#	143560
#	181175
#	216677
#	239522
#
# Disc length: 3421 seconds
#
# Revision: 1
# Processed by: cddbd v1.5.1PL2 Copyright (c) Steve Scherf et al.
# Submitted via: EasyCDDAExtractor 5.1.0
#
DISCID=8f0d5b0a
DTITLE=Howard Guitar Luedtke - Live In Gleisdorf Austria
DYEAR=1995
DGENRE=Blues
TTITLE0=Sweet Papa John
TTITLE1=You Don't Have to Go
TTITLE2=Backdoor Man
TTITLE3=Everyday I have the Blues
TTITLE4=Suzy Q
TTITLE5=Bullfrog Blues
TTITLE6=Mustang Sally
TTITLE7=Lovin My Woman
TTITLE8=Sweet Home Chicago
TTITLE9=I Feel Good
EXTD=
EXTT0=
EXTT1=
EXTT2=
EXTT3=
EXTT4=
EXTT5=
EXTT6=
EXTT7=
EXTT8=
EXTT9=
PLAYORDER=
